<?xml version="1.0" encoding="UTF-8" standalone="no"?>
<svg width="97px" height="57px" viewBox="0 0 97 57" version="1.1" xmlns="http://www.w3.org/2000/svg" xmlns:xlink="http://www.w3.org/1999/xlink" xmlns:sketch="http://www.bohemiancoding.com/sketch/ns">
    <title>Slice 1</title>
    <description>Created with Sketch (http://www.bohemiancoding.com/sketch)</description>
    <defs></defs>
    <g id="Page-1" stroke="none" stroke-width="1" fill="none" fill-rule="evenodd" sketch:type="MSPage">
        <g id="5278877a-2c52-4753-957b-3355a1dca19a" sketch:type="MSLayerGroup" transform="translate(-1.000000, -20.000000)" stroke="#DEDEDE" fill="#DEDEDE">
            <g id="Your_Icon" transform="translate(4.000000, 22.000000)" sketch:type="MSShapeGroup">
                <path d="M70.39,47.765 L69.533,45.958 C92.215,35.196 89.7,8.704 89.673,8.438 L91.661,8.229 C91.691,8.509 94.338,36.403 70.39,47.765 L70.39,47.765 Z" id="Shape"></path>
                <path d="M46,52.55 C36.397,52.55 28.1,50.903 21.34,47.654 L22.206,45.851 C28.694,48.969 36.699,50.55 46,50.55 C55.192,50.55 63.109,49.005 69.532,45.958 L70.389,47.765 C63.697,50.939 55.491,52.55 46,52.55 L46,52.55 Z" id="Shape"></path>
                <path d="M21.34,47.654 C20.99,47.485 20.647,47.314 20.308,47.138 C-2.374,35.423 -0.021,8.506 0.005,8.236 L1.995,8.43 C1.971,8.687 -0.235,34.277 21.226,45.363 C21.548,45.53 21.874,45.693 22.206,45.852 L21.34,47.654 L21.34,47.654 Z" id="Shape"></path>
            </g>
        </g>
        <path d="M48.5,16 C73.0766726,16 93.7999878,13.0898511 93.7999878,9.5 C93.7999878,5.91014895 73.0766726,3 48.5,3 C23.9233274,3 4,5.91014895 4,9.5 C4,13.0898511 23.9233274,16 48.5,16 Z" id="Oval-2" stroke="#DEDEDE" stroke-width="3" sketch:type="MSShapeGroup"></path>
    </g>
</svg>