<?xml version="1.0" encoding="UTF-8" standalone="no"?>
<svg width="93px" height="53px" viewBox="0 0 93 53" version="1.1" xmlns="http://www.w3.org/2000/svg" xmlns:xlink="http://www.w3.org/1999/xlink" xmlns:sketch="http://www.bohemiancoding.com/sketch/ns">
    <title>Slice 1</title>
    <description>Created with Sketch (http://www.bohemiancoding.com/sketch)</description>
    <defs></defs>
    <g id="Page-1" stroke="none" stroke-width="1" fill="none" fill-rule="evenodd" sketch:type="MSPage">
        <path d="M47.384,51.703 C37.498,51.703 28.958,50.057 22,46.812 L22.846,45 C29.537,48.121 37.793,49.703 47.384,49.703 C56.863,49.703 65.029,48.156 71.654,45.106 L72.49,46.922 C65.601,50.094 57.154,51.703 47.384,51.703 L47.384,51.703 Z" id="Shape" fill="#252829" sketch:type="MSShapeGroup"></path>
        <path d="M22,44.812 L23.0817871,42.7385254 C29.7727871,45.8595254 37.7930008,47.3608398 47.3840008,47.3608398 C56.8630008,47.3608398 64.6350098,45.7885254 71.2600098,42.7385254 L72.49,44.922 C65.601,48.094 57.154,49.703 47.384,49.703 C37.498,49.703 28.958,48.057 22,44.812 Z" id="Shape-copy" fill="#1F9BCC" sketch:type="MSShapeGroup"></path>
        <path d="M23,45.8 L23,45.1532715 L23,42.8" id="Line" stroke="#252829" stroke-width="2" stroke-linecap="square" sketch:type="MSShapeGroup"></path>
        <path d="M71.5,45.8 L71.5,45.1963867 L71.5,43.7890625 L71.5,43" id="Line-copy" stroke="#252829" stroke-width="2" stroke-linecap="square" sketch:type="MSShapeGroup"></path>
    </g>
</svg>