<?xml version="1.0" encoding="UTF-8" standalone="no"?>
<svg width="93px" height="53px" viewBox="0 0 93 53" version="1.1" xmlns="http://www.w3.org/2000/svg" xmlns:xlink="http://www.w3.org/1999/xlink" xmlns:sketch="http://www.bohemiancoding.com/sketch/ns">
    <title>Slice 1</title>
    <description>Created with Sketch (http://www.bohemiancoding.com/sketch)</description>
    <defs></defs>
    <g id="Page-1" stroke="none" stroke-width="1" fill="none" fill-rule="evenodd" sketch:type="MSPage">
        <g id="Group" sketch:type="MSLayerGroup" transform="translate(15.000000, 34.000000)" fill="#D8D8D8">
            <path d="M29.5,11 C30.3284272,11 31,10.3284272 31,9.5 C31,8.67157283 30.3284272,8 29.5,8 C28.6715728,8 28,8.67157283 28,9.5 C28,10.3284272 28.6715728,11 29.5,11 Z" id="Oval-3" sketch:type="MSShapeGroup"></path>
            <circle id="Oval-3-copy" sketch:type="MSShapeGroup" cx="33.5" cy="9.5" r="1.5"></circle>
            <circle id="Oval-3-copy-2" sketch:type="MSShapeGroup" cx="33.5" cy="12.5" r="1.5"></circle>
            <circle id="Oval-3-copy-2" sketch:type="MSShapeGroup" cx="38.5" cy="6.5" r="1.5"></circle>
            <circle id="Oval-3-copy-2" sketch:type="MSShapeGroup" cx="42.5" cy="5.5" r="1.5"></circle>
            <circle id="Oval-3-copy-3" sketch:type="MSShapeGroup" cx="38.5" cy="2.5" r="1.5"></circle>
            <circle id="Oval-3-copy-3" sketch:type="MSShapeGroup" cx="37.5" cy="11.5" r="1.5"></circle>
            <circle id="Oval-3-copy-4" sketch:type="MSShapeGroup" cx="36.5" cy="14.5" r="1.5"></circle>
            <circle id="Oval-3-copy-4" sketch:type="MSShapeGroup" cx="40.5" cy="9.5" r="1.5"></circle>
            <circle id="Oval-3-copy-5" sketch:type="MSShapeGroup" cx="40.5" cy="13.5" r="1.5"></circle>
            <circle id="Oval-3-copy-3" sketch:type="MSShapeGroup" cx="43.5" cy="8.5" r="1.5"></circle>
            <circle id="Oval-3-copy-4" sketch:type="MSShapeGroup" cx="44.5" cy="11.5" r="1.5"></circle>
            <circle id="Oval-3-copy-5" sketch:type="MSShapeGroup" cx="48.5" cy="11.5" r="1.5"></circle>
            <circle id="Oval-3-copy-6" sketch:type="MSShapeGroup" cx="48.5" cy="8.5" r="1.5"></circle>
            <circle id="Oval-3-copy-7" sketch:type="MSShapeGroup" cx="55.5" cy="6.5" r="1.5"></circle>
            <circle id="Oval-3-copy-8" sketch:type="MSShapeGroup" cx="59.5" cy="2.5" r="1.5"></circle>
            <circle id="Oval-3-copy-9" sketch:type="MSShapeGroup" cx="63.5" cy="2.5" r="1.5"></circle>
            <circle id="Oval-3-copy-8" sketch:type="MSShapeGroup" cx="60.5" cy="6.5" r="1.5"></circle>
            <circle id="Oval-3-copy-7" sketch:type="MSShapeGroup" cx="52.5" cy="9.5" r="1.5"></circle>
            <circle id="Oval-3-copy-7" sketch:type="MSShapeGroup" cx="51.5" cy="5.5" r="1.5"></circle>
            <circle id="Oval-3-copy-8" sketch:type="MSShapeGroup" cx="49.5" cy="2.5" r="1.5"></circle>
            <circle id="Oval-3-copy-8" sketch:type="MSShapeGroup" cx="54.5" cy="2.5" r="1.5"></circle>
            <circle id="Oval-3-copy-7" sketch:type="MSShapeGroup" cx="46.5" cy="5.5" r="1.5"></circle>
            <circle id="Oval-3-copy-8" sketch:type="MSShapeGroup" cx="44.5" cy="1.5" r="1.5"></circle>
            <circle id="Oval-3-copy" sketch:type="MSShapeGroup" cx="29.5" cy="6.5" r="1.5"></circle>
            <circle id="Oval-3-copy-2" sketch:type="MSShapeGroup" cx="34.5" cy="5.5" r="1.5"></circle>
            <circle id="Oval-3-copy-3" sketch:type="MSShapeGroup" cx="29.5" cy="2.5" r="1.5"></circle>
            <circle id="Oval-3-copy-3" sketch:type="MSShapeGroup" cx="34.5" cy="2.5" r="1.5"></circle>
            <circle id="Oval-3-copy" sketch:type="MSShapeGroup" cx="25.5" cy="10.5" r="1.5"></circle>
            <circle id="Oval-3-copy-2" sketch:type="MSShapeGroup" cx="17.5" cy="12.5" r="1.5"></circle>
            <circle id="Oval-3-copy-2" sketch:type="MSShapeGroup" cx="25.5" cy="14.5" r="1.5"></circle>
            <circle id="Oval-3-copy-2" sketch:type="MSShapeGroup" cx="29.5" cy="12.5" r="1.5"></circle>
            <circle id="Oval-3-copy-2" sketch:type="MSShapeGroup" cx="25.5" cy="6.5" r="1.5"></circle>
            <circle id="Oval-3-copy-3" sketch:type="MSShapeGroup" cx="24.5" cy="2.5" r="1.5"></circle>
            <circle id="Oval-3-copy-2" sketch:type="MSShapeGroup" cx="22.5" cy="6.5" r="1.5"></circle>
            <circle id="Oval-3-copy-3" sketch:type="MSShapeGroup" cx="19.5" cy="3.5" r="1.5"></circle>
            <circle id="Oval-3-copy-2" sketch:type="MSShapeGroup" cx="21.5" cy="10.5" r="1.5"></circle>
            <circle id="Oval-3-copy-3" sketch:type="MSShapeGroup" cx="17.5" cy="7.5" r="1.5"></circle>
            <circle id="Oval-3-copy-4" sketch:type="MSShapeGroup" cx="11.5" cy="5.5" r="1.5"></circle>
            <circle id="Oval-3-copy-5" sketch:type="MSShapeGroup" cx="6.5" cy="4.5" r="1.5"></circle>
            <circle id="Oval-3-copy-6" sketch:type="MSShapeGroup" cx="1.5" cy="4.5" r="1.5"></circle>
            <circle id="Oval-3-copy-4" sketch:type="MSShapeGroup" cx="15.5" cy="4.5" r="1.5"></circle>
            <circle id="Oval-3-copy-4" sketch:type="MSShapeGroup" cx="13.5" cy="9.5" r="1.5"></circle>
            <circle id="Oval-3-copy-5" sketch:type="MSShapeGroup" cx="8.5" cy="8.5" r="1.5"></circle>
        </g>
    </g>
</svg>