<?xml version="1.0" encoding="UTF-8" standalone="no"?>
<svg width="93px" height="53px" viewBox="0 0 93 53" version="1.1" xmlns="http://www.w3.org/2000/svg" xmlns:xlink="http://www.w3.org/1999/xlink" xmlns:sketch="http://www.bohemiancoding.com/sketch/ns">
    <title>Slice 1</title>
    <description>Created with Sketch (http://www.bohemiancoding.com/sketch)</description>
    <defs></defs>
    <g id="Page-1" stroke="none" stroke-width="1" fill="none" fill-rule="evenodd" sketch:type="MSPage">
        <g id="Group" sketch:type="MSLayerGroup" transform="translate(6.000000, 21.000000)" fill="#D8D8D8">
            <circle id="Oval-3-copy-4" sketch:type="MSShapeGroup" cx="48.5" cy="11.5" r="1.5"></circle>
            <circle id="Oval-3-copy-5" sketch:type="MSShapeGroup" cx="45.5" cy="7.5" r="1.5"></circle>
            <circle id="Oval-3-copy-6" sketch:type="MSShapeGroup" cx="49.5" cy="4.5" r="1.5"></circle>
            <circle id="Oval-3-copy-9" sketch:type="MSShapeGroup" cx="74.5" cy="12.5" r="1.5"></circle>
            <circle id="Oval-3-copy-9" sketch:type="MSShapeGroup" cx="70.5" cy="10.5" r="1.5"></circle>
            <circle id="Oval-3-copy-10" sketch:type="MSShapeGroup" cx="69.5" cy="6.5" r="1.5"></circle>
            <circle id="Oval-3-copy-11" sketch:type="MSShapeGroup" cx="68.5" cy="2.5" r="1.5"></circle>
            <circle id="Oval-3-copy-11" sketch:type="MSShapeGroup" cx="64.5" cy="7.5" r="1.5"></circle>
            <circle id="Oval-3-copy-12" sketch:type="MSShapeGroup" cx="63.5" cy="3.5" r="1.5"></circle>
            <circle id="Oval-3-copy-10" sketch:type="MSShapeGroup" cx="75.5" cy="8.5" r="1.5"></circle>
            <circle id="Oval-3-copy-11" sketch:type="MSShapeGroup" cx="76.5" cy="3.5" r="1.5"></circle>
            <circle id="Oval-3-copy-12" sketch:type="MSShapeGroup" cx="80.5" cy="1.5" r="1.5"></circle>
            <circle id="Oval-3-copy-11" sketch:type="MSShapeGroup" cx="79.5" cy="6.5" r="1.5"></circle>
            <circle id="Oval-3-copy-11" sketch:type="MSShapeGroup" cx="72.5" cy="5.5" r="1.5"></circle>
            <circle id="Oval-3-copy-12" sketch:type="MSShapeGroup" cx="72.5" cy="1.5" r="1.5"></circle>
            <circle id="Oval-3-copy-9" sketch:type="MSShapeGroup" cx="66.5" cy="11.5" r="1.5"></circle>
            <circle id="Oval-3-copy-9" sketch:type="MSShapeGroup" cx="62.5" cy="11.5" r="1.5"></circle>
            <circle id="Oval-3-copy-10" sketch:type="MSShapeGroup" cx="60.5" cy="7.5" r="1.5"></circle>
            <circle id="Oval-3-copy-11" sketch:type="MSShapeGroup" cx="58.5" cy="4.5" r="1.5"></circle>
            <circle id="Oval-3-copy-9" sketch:type="MSShapeGroup" cx="58.5" cy="11.5" r="1.5"></circle>
            <circle id="Oval-3-copy-10" sketch:type="MSShapeGroup" cx="55.5" cy="7.5" r="1.5"></circle>
            <circle id="Oval-3-copy-11" sketch:type="MSShapeGroup" cx="54.5" cy="4.5" r="1.5"></circle>
            <circle id="Oval-3-copy-9" sketch:type="MSShapeGroup" cx="53.5" cy="10.5" r="1.5"></circle>
            <circle id="Oval-3-copy-10" sketch:type="MSShapeGroup" cx="49.5" cy="8.5" r="1.5"></circle>
            <circle id="Oval-3-copy-4" sketch:type="MSShapeGroup" cx="43.5" cy="11.5" r="1.5"></circle>
            <circle id="Oval-3-copy-5" sketch:type="MSShapeGroup" cx="41.5" cy="8.5" r="1.5"></circle>
            <circle id="Oval-3-copy-6" sketch:type="MSShapeGroup" cx="44.5" cy="3.5" r="1.5"></circle>
            <circle id="Oval-3-copy-6" sketch:type="MSShapeGroup" cx="39.5" cy="4.5" r="1.5"></circle>
            <circle id="Oval-3-copy-4" sketch:type="MSShapeGroup" cx="38.5" cy="11.5" r="1.5"></circle>
            <circle id="Oval-3-copy-5" sketch:type="MSShapeGroup" cx="36.5" cy="7.5" r="1.5"></circle>
            <circle id="Oval-3-copy-6" sketch:type="MSShapeGroup" cx="35.5" cy="3.5" r="1.5"></circle>
            <circle id="Oval-3-copy-4" sketch:type="MSShapeGroup" cx="33.5" cy="11.5" r="1.5"></circle>
            <circle id="Oval-3-copy-5" sketch:type="MSShapeGroup" cx="32.5" cy="5.5" r="1.5"></circle>
            <circle id="Oval-3-copy-5" sketch:type="MSShapeGroup" cx="29.5" cy="8.5" r="1.5"></circle>
            <circle id="Oval-3-copy-6" sketch:type="MSShapeGroup" cx="27.5" cy="4.5" r="1.5"></circle>
            <circle id="Oval-3-copy-4" sketch:type="MSShapeGroup" cx="28.5" cy="12.5" r="1.5"></circle>
            <circle id="Oval-3-copy-5" sketch:type="MSShapeGroup" cx="18.5" cy="14.5" r="1.5"></circle>
            <circle id="Oval-3-copy-6" sketch:type="MSShapeGroup" cx="16.5" cy="10.5" r="1.5"></circle>
            <circle id="Oval-3-copy-7" sketch:type="MSShapeGroup" cx="13.5" cy="6.5" r="1.5"></circle>
            <circle id="Oval-3-copy-8" sketch:type="MSShapeGroup" cx="11.5" cy="2.5" r="1.5"></circle>
            <circle id="Oval-3-copy-6" sketch:type="MSShapeGroup" cx="13.5" cy="14.5" r="1.5"></circle>
            <circle id="Oval-3-copy-7" sketch:type="MSShapeGroup" cx="11.5" cy="10.5" r="1.5"></circle>
            <circle id="Oval-3-copy-8" sketch:type="MSShapeGroup" cx="9.5" cy="6.5" r="1.5"></circle>
            <circle id="Oval-3-copy-9" sketch:type="MSShapeGroup" cx="5.5" cy="3.5" r="1.5"></circle>
            <circle id="Oval-3-copy-10" sketch:type="MSShapeGroup" cx="1.5" cy="3.5" r="1.5"></circle>
            <circle id="Oval-3-copy-8" sketch:type="MSShapeGroup" cx="6.5" cy="9.5" r="1.5"></circle>
            <circle id="Oval-3-copy-9" sketch:type="MSShapeGroup" cx="3.5" cy="7.5" r="1.5"></circle>
            <circle id="Oval-3-copy-7" sketch:type="MSShapeGroup" cx="8.5" cy="13.5" r="1.5"></circle>
            <circle id="Oval-3-copy-5" sketch:type="MSShapeGroup" cx="23.5" cy="14.5" r="1.5"></circle>
            <circle id="Oval-3-copy-6" sketch:type="MSShapeGroup" cx="25.5" cy="10.5" r="1.5"></circle>
            <circle id="Oval-3-copy-7" sketch:type="MSShapeGroup" cx="23.5" cy="6.5" r="1.5"></circle>
            <circle id="Oval-3-copy-8" sketch:type="MSShapeGroup" cx="20.5" cy="2.5" r="1.5"></circle>
            <circle id="Oval-3-copy-6" sketch:type="MSShapeGroup" cx="21.5" cy="10.5" r="1.5"></circle>
            <circle id="Oval-3-copy-7" sketch:type="MSShapeGroup" cx="18.5" cy="6.5" r="1.5"></circle>
            <circle id="Oval-3-copy-8" sketch:type="MSShapeGroup" cx="15.5" cy="3.5" r="1.5"></circle>
        </g>
    </g>
</svg>