<?xml version="1.0" encoding="UTF-8" standalone="no"?>
<svg width="93px" height="53px" viewBox="0 0 93 53" version="1.1" xmlns="http://www.w3.org/2000/svg" xmlns:xlink="http://www.w3.org/1999/xlink" xmlns:sketch="http://www.bohemiancoding.com/sketch/ns">
    <title>Slice 1</title>
    <description>Created with Sketch (http://www.bohemiancoding.com/sketch)</description>
    <defs></defs>
    <g id="Page-1" stroke="none" stroke-width="1" fill="none" fill-rule="evenodd" sketch:type="MSPage">
        <path d="M91.9566146,8 L105,8 L105,59 L-17,59 L-17,8 L1.92550277,8 C1.93094288,9.64324562 2.01362382,11.5261573 2.20001221,13.6825343 C3.46771858,28.3489553 12.3428022,52.000005 45.3344036,52 C91.2669808,51.9999932 92.3341219,16.3331672 91.9566146,8 Z" id="Rectangle-1" fill="#1F9BCC" sketch:type="MSShapeGroup"></path>
        <g id="5278877a-2c52-4753-957b-3355a1dca19a" sketch:type="MSLayerGroup" transform="translate(-3.000000, -22.000000)">
            <g id="Captions"></g>
            <g id="Your_Icon" transform="translate(4.000000, 22.000000)" fill="#252829" sketch:type="MSShapeGroup">
                <path d="M70.39,47.765 L69.533,45.958 C92.215,35.196 89.7,8.704 89.673,8.438 L91.661,8.229 C91.691,8.509 94.338,36.403 70.39,47.765 L70.39,47.765 Z" id="Shape"></path>
                <path d="M46,52.55 C36.397,52.55 28.1,50.903 21.34,47.654 L22.206,45.851 C28.694,48.969 36.699,50.55 46,50.55 C55.192,50.55 63.109,49.005 69.532,45.958 L70.389,47.765 C63.697,50.939 55.491,52.55 46,52.55 L46,52.55 Z" id="Shape"></path>
                <path d="M21.34,47.654 C20.99,47.485 20.647,47.314 20.308,47.138 C-2.374,35.423 -0.021,8.506 0.005,8.236 L1.995,8.43 C1.971,8.687 -0.235,34.277 21.226,45.363 C21.548,45.53 21.874,45.693 22.206,45.852 L21.34,47.654 L21.34,47.654 Z" id="Shape"></path>
            </g>
        </g>
        <path d="M46.5,14 C71.0766726,14 91.7999878,11.0898511 91.7999878,7.5 C91.7999878,3.91014895 71.0766726,1 46.5,1 C21.9233274,1 2,3.91014895 2,7.5 C2,11.0898511 21.9233274,14 46.5,14 Z" id="Oval-2" stroke="#252829" stroke-width="2" sketch:type="MSShapeGroup"></path>
    </g>
</svg>