<?xml version="1.0" encoding="utf-8"?>
<!-- Generator: Adobe Illustrator 16.0.0, SVG Export Plug-In . SVG Version: 6.00 Build 0)  -->
<!DOCTYPE svg PUBLIC "-//W3C//DTD SVG 1.1//EN" "http://www.w3.org/Graphics/SVG/1.1/DTD/svg11.dtd">
<svg version="1.1" id="Layer_1" xmlns="http://www.w3.org/2000/svg" xmlns:xlink="http://www.w3.org/1999/xlink" x="0px" y="0px"
	 width="432px" height="432px" viewBox="0 0 432 432" enable-background="new 0 0 432 432" xml:space="preserve">
<g>
	<circle fill="#FFFFFF" cx="216" cy="216" r="184.778"/>
	<g opacity="0.3">
		<circle fill="#22B3E8" cx="216.529" cy="216.073" r="184.778"/>
	</g>
	<g opacity="0.5">
		<circle fill="#22B3E8" cx="216.529" cy="216.073" r="170.608"/>
	</g>
	<g>
		<g>
			<g>
				<path fill="#1E9CCE" d="M198.797,266.334c0,0,1.121,23.708,23.609,33.979c22.488,10.273,40.55,0.482,53.732,6.502
					c4.871-10.662-16.842-39.559-29.055-45.137c-16.283-7.44-25.021-3.698-33.166-7.417c-8.142-3.719-9.711-14.211-11.11-22.039
					C201.407,224.393,198.797,266.334,198.797,266.334z"/>
			</g>
		</g>
		<g>
			<g>
				<path fill="#22B3E8" d="M234.647,298.769c-3.474-0.741-6.751-1.826-10.019-3.319c-18.175-8.301-20.269-26.614-20.471-29.129
					c0.253-4.063,0.548-8.278,0.854-12.288c1.737,2.067,3.915,3.83,6.686,5.094c1.573,0.718,3.233,1.259,5.076,1.652
					c2.521,0.538,5.02,0.724,7.664,0.922c2.988,0.225,6.08,0.457,9.658,1.219c3.574,0.762,7.096,1.946,10.765,3.624
					c4.927,2.25,12.81,10.165,18.747,18.822c4.217,6.15,6.417,11.057,7.344,14.439c-4.766-0.725-9.739-0.453-14.968-0.168
					C249.23,300.007,242.247,300.388,234.647,298.769z"/>
			</g>
		</g>
	</g>
	<g>
		<g>
			<path fill="#1E9CCE" d="M221.146,346.799c0,0-24.668-15.368-24.668-47.248c0-60.114,114.143-24.621,114.143-121.42
				c0-47.189-55.979-67.358-83.609-67.358c-35.701,0-116.041,18.555-116.041,132.697c0,61.989,46.787,107.689,98.065,119.963
				C221.006,359.813,221.146,346.799,221.146,346.799z"/>
		</g>
	</g>
	<g>
		<g>
			<path fill="#22B3E8" d="M208.79,358.389c-24.697-6.216-47.513-20.198-64.372-39.48c-18.714-21.403-28.606-47.489-28.606-75.439
				c0-121.693,92.63-127.856,111.2-127.856c14.778,0,32.893,5.152,49.664,15.285c17.306,10.455,29.105,24.339,29.105,47.233
				c0,50.727-32.516,62.346-63.962,73.583c-12.762,4.561-24.817,8.869-34.036,15.695c-10.864,8.045-16.146,18.559-16.146,32.142
				c0,28.178,17.574,44.336,24.358,49.524C215.406,351.853,213.701,356.361,208.79,358.389z"/>
		</g>
	</g>
	<g opacity="0.4">
		<g>
			<path fill="#FFFFFF" d="M208.79,358.389c-54.608-29.506-91.567-78.403-4.632-166.752c3.008,6.482,14.458,16.116,20.925,20.938
				c18.502,13.793,47.423,21.029,74.771-2.317c0,28.548-58.075,43.774-81.031,52.79c-24.509,9.624-41.979,51.223-1.072,82.89
				C220.853,349.784,208.79,358.389,208.79,358.389z"/>
		</g>
	</g>
	<g>
		<linearGradient id="SVGID_2_" gradientUnits="userSpaceOnUse" x1="222.7813" y1="250.3022" x2="222.7813" y2="199.9746">
			<stop  offset="0" style="stop-color:#751B1D"/>
			<stop  offset="1" style="stop-color:#000000"/>
		</linearGradient>
		<path fill="url(#SVGID_2_)" d="M236.271,245.369c-2.16,3.481-3.907,7.178-19.489,3.233c-15.582-3.945-23.838-18.13-21.105-28.924
			c2.732-10.794,14.576-19.704,14.576-19.704s18.564,19.837,40.151,24.613C250.403,224.588,239.425,240.292,236.271,245.369z"/>
		<g>
			<g>
				<path fill="#1E9CCE" d="M187.834,241.068c-0.912,0-1.785-0.517-2.195-1.397c-2.534-5.43-3.093-11.588-1.663-18.302
					c0.278-1.308,1.562-2.141,2.871-1.863c1.307,0.278,2.142,1.563,1.862,2.871c-1.206,5.662-0.763,10.792,1.316,15.247
					c0.565,1.211,0.042,2.651-1.17,3.217C188.525,240.994,188.176,241.068,187.834,241.068z"/>
			</g>
		</g>
		<g>
			<g>
				<path fill="#F7352C" d="M197.398,224.656c-0.684,0-1.38,0.045-2.069,0.134l-0.169,0.021c0.432,9.767,8.375,20.49,21.599,23.839
					c1.436,0.363,2.751,0.66,3.963,0.9l-0.921-2.836C219.066,244.458,212.201,224.656,197.398,224.656z"/>
			</g>
		</g>
		<g>
			<g>
				<path fill="#1E9CCE" d="M198.612,200.539c-0.515,0-1.034-0.163-1.474-0.501c-1.06-0.814-1.257-2.334-0.442-3.394
					c3.548-4.614,7.13-8.272,8.25-9.037c2-1.367,4.24-1.79,6.48-1.222c5.427,1.375,9.696,6.961,9.875,7.199
					c0.807,1.066,0.596,2.584-0.472,3.389c-1.065,0.806-2.583,0.595-3.388-0.471c-0.947-1.242-4.081-4.634-7.204-5.425
					c-0.88-0.222-1.717-0.05-2.562,0.526c-0.477,0.356-3.538,3.304-7.143,7.992C200.055,200.214,199.338,200.539,198.612,200.539z"
					/>
			</g>
		</g>
		<g>
			<g>
				<path fill="#F36348" d="M195.972,229.542c12.659-1.638,19.247,18.622,19.247,18.622S200.738,244.708,195.972,229.542z"/>
			</g>
		</g>
		<g>
			<g>
				<path fill="#FFFFFF" d="M199.945,210.789c0,0,23.963,25.274,52.474,25.274c11.722,0,10.23-1.69,9.6-10.236
					c-1.267,0.104-2.886,0.651-11.615-1.239c-8.731-1.892-30.218-13.06-40.151-24.613
					C210.252,199.975,204.347,204.36,199.945,210.789z"/>
			</g>
		</g>
		<g>
			<g>
				<path fill="#DFE1E0" d="M208.38,201.235c0,0,19.566,29.741,54.116,29.741l-0.203-2.727
					C262.293,228.249,237.42,230.26,208.38,201.235z"/>
			</g>
		</g>
		<g>
			<g>
				<path fill="#1E9CCE" d="M260.144,227.815c-3.412,0-6.805-0.28-10.142-0.84c-21.88-3.67-40.759-24.501-41.551-25.386
					c-0.892-0.995-0.809-2.524,0.187-3.416c0.994-0.892,2.525-0.809,3.417,0.185c0.185,0.205,18.56,20.457,38.749,23.843
					c4.795,0.805,9.722,0.983,14.646,0.53c1.326-0.122,2.509,0.857,2.632,2.188c0.122,1.33-0.857,2.509-2.188,2.632
					C263.975,227.727,262.056,227.815,260.144,227.815z"/>
			</g>
		</g>
	</g>
	<g>
		<g>
			<g>
				
					<ellipse transform="matrix(0.8977 0.4407 -0.4407 0.8977 94.0143 -78.1893)" fill="#FFFFFF" cx="215.362" cy="163.334" rx="12.079" ry="14.676"/>
			</g>
		</g>
		<g>
			<g>
				<g>
					<circle fill="#231F20" cx="213.705" cy="168.309" r="9.681"/>
				</g>
			</g>
			<g>
				<g>
					<circle fill="#FFFFFF" cx="213.93" cy="166.534" r="4.22"/>
				</g>
			</g>
		</g>
		<g>
			<g>
				<path fill="#1E9CCE" d="M197.43,150.176c-0.296,0-0.596-0.054-0.888-0.169c-1.244-0.491-1.852-1.897-1.361-3.14
					c0.118-0.298,2.979-7.341,10.982-10.086c7.88-2.703,14.411-1.792,18.886,2.633c0.95,0.94,0.959,2.472,0.019,3.422
					c-0.939,0.952-2.473,0.959-3.423,0.019c-3.889-3.847-9.71-2.936-13.912-1.497c-5.914,2.029-8.03,7.234-8.051,7.287
					C199.307,149.596,198.395,150.176,197.43,150.176z"/>
			</g>
		</g>
	</g>
	<g>
		<g>
			<path fill="#1E9CCE" d="M227.012,115.614c14.778,0,32.893,5.152,49.664,15.285c17.306,10.455,29.105,24.339,29.105,47.233
				c0,50.727-32.516,62.346-63.962,73.583c-12.762,4.561-24.817,8.869-34.036,15.695c-10.864,8.045-16.146,18.559-16.146,32.142
				c0,28.178,17.574,44.336,24.358,49.524c-0.59,2.777-2.295,7.286-7.206,9.313c-24.697-6.216-47.513-20.198-64.372-39.48
				c-18.714-21.403-28.606-47.489-28.606-75.439C115.812,121.777,208.442,115.614,227.012,115.614 M227.012,110.773
				c-10.881,0-39.019,1.86-65.223,19.089c-15.122,9.943-27.076,23.435-35.53,40.101c-10.144,19.997-15.288,44.728-15.288,73.506
				c0,29.139,10.306,56.326,29.804,78.625c17.47,19.98,41.206,34.537,66.833,40.987l1.551,0.391l1.478-0.61
				c5.215-2.152,8.8-6.692,10.095-12.781l0.635-2.992l-2.43-1.858c-6.752-5.164-22.458-19.95-22.458-45.68
				c0-12.108,4.507-21.085,14.185-28.252c8.646-6.402,20.371-10.591,32.787-15.027c16.021-5.726,32.589-11.646,45.348-22.913
				c14.686-12.97,21.824-31.035,21.824-55.228c0-22.091-9.991-38.416-31.442-51.375
				C262.367,116.599,243.353,110.773,227.012,110.773L227.012,110.773z"/>
		</g>
	</g>
	<g>
		<g>
			<g>
				<path fill="#1E9CCE" d="M251.421,369.193c0,0,3.326,4.823,3.754,10.499c0.78,10.3-12.971,21.121-12.413,28.479
					c0.557,7.357,4.105,7.033,4.424,11.238c0.316,4.204-4.236,11.103-10.33,11.563c-6.099,0.46-44.921-4.108-36.938-57.884
					c1.466-9.876,9.45-19.642,13.66-23.444c16.172-14.602,33.854-28.184,50.663-29.688c21.61-1.934,42.057,12,43.86,35.86
					c1.021,13.506-9.8,2.193-21.629,3.088c-9.252,0.7-16.709,11.015-21.912,11.409C259.358,370.707,253.667,370.239,251.421,369.193
					z"/>
			</g>
		</g>
		<g>
			<g>
				<path fill="#22B3E8" d="M235.994,426.16c-4.806,0-15.902-2.325-23.497-11.129c-7.876-9.132-10.498-23.005-7.792-41.232
					c1.201-8.094,8.069-16.908,12.117-20.562c13.838-12.495,31.783-27.022,47.851-28.46c1.179-0.105,2.372-0.158,3.548-0.158
					c8.91,0,17.321,3.004,23.688,8.458c6.729,5.766,10.66,13.756,11.368,23.106c0.037,0.485,0.052,0.89,0.053,1.225
					c-0.924-0.234-2.063-0.599-3.12-0.936c-3.422-1.095-7.681-2.458-12.36-2.458c-0.586,0-1.171,0.022-1.741,0.065
					c-6.7,0.507-12.169,4.625-16.563,7.935c-1.756,1.322-4.411,3.321-5.376,3.478c-1.065,0.08-2.201,0.122-3.349,0.122
					c-4.222,0-6.778-0.543-7.356-0.807l-15.936-7.267l9.908,14.402c0.015,0.021,2.594,3.877,2.913,8.116
					c0.297,3.913-3.122,9.014-6.139,13.513c-3.423,5.105-6.656,9.928-6.275,14.967c0.425,5.612,2.385,8.199,3.684,9.91
					c0.712,0.94,0.715,0.984,0.74,1.328c0.047,0.616-0.462,2.245-1.701,3.784c-1.241,1.539-2.76,2.482-4.168,2.588
					C236.353,426.156,236.187,426.16,235.994,426.16z"/>
			</g>
		</g>
	</g>
	<g>
		<g>
			<g>
				<path fill="#1E9CCE" d="M135.669,224.583c0,0-22.103,19.805-50.982,8.782c-28.881-11.021-36.006-35.701-52.936-42.162
					c5.226-13.694,50.017-19.705,65.703-13.718c20.914,7.979,25.247,19.046,35.703,23.036c10.458,3.991,11.943,3.017,16.194,5.902
					C152.526,209.176,135.669,224.583,135.669,224.583z"/>
			</g>
		</g>
		<g>
			<g>
				<path fill="#22B3E8" d="M94.389,231.111c-2.665-0.502-5.348-1.264-7.976-2.268c-15.244-5.817-24.128-15.88-31.968-24.76
					c-4.879-5.527-9.554-10.822-15.215-14.466c3.423-2.524,9.651-5.229,18.74-7.188c11.826-2.548,25.03-3.146,33.641-1.525
					c1.604,0.302,2.987,0.673,4.116,1.103c11.443,4.367,17.471,9.634,22.79,14.281c3.999,3.494,7.775,6.794,12.914,8.755
					c4.885,1.865,7.915,2.697,10.127,3.306c0.881,0.243,1.564,0.431,2.158,0.624c-2.15,2.937-6.654,7.778-11.278,12.008
					C131.879,221.465,115.802,235.14,94.389,231.111z"/>
			</g>
		</g>
		<g>
			<g>
				<path fill="#22B3E8" d="M127.134,224.688c0,0,12.938-4.948,9.663,4.285c-3.278,9.232,15.509-18.627,15.509-18.627l-8.591-1.372
					l-14.354,3.877L127.134,224.688z"/>
			</g>
		</g>
	</g>
	<g>
		<g>
			<g>
				<path fill="#1E9CCE" d="M288.104,172.097c-1.048,0-2.121-0.058-3.213-0.175c-1.329-0.143-2.291-1.334-2.148-2.663
					c0.142-1.329,1.336-2.289,2.663-2.149c6.385,0.682,11.773-1.001,14.406-4.504c1.993-2.652,2.193-6.14,0.58-10.086
					c-0.506-1.237,0.086-2.65,1.324-3.156c1.236-0.507,2.649,0.087,3.155,1.324c2.262,5.53,1.839,10.795-1.19,14.827
					C300.508,169.734,294.822,172.097,288.104,172.097z"/>
			</g>
		</g>
		<g>
			<g>
				<path fill="#1E9CCE" d="M253.884,136.94c-1.146,0-2.154-0.799-2.365-1.963c-0.345-1.911,0.121-8.453,4.679-12.634
					c1.172-1.075,2.798-2.144,4.996-2.8c0.002-0.005,0.004-0.01,0.007-0.014c0.536-1.224,1.963-1.78,3.188-1.246
					c0.549,0.241,1.094,0.443,1.625,0.613c1.894,0.012,4.052,0.299,6.505,0.965l14.474,3.934l-14.978,0.818
					c-0.15,0.007-3.076,0.15-6.724-0.88c-2.359,0.094-4.282,0.799-5.749,2.113c-3.199,2.862-3.35,7.688-3.259,8.274
					c0.204,1.309-0.679,2.565-1.984,2.786C254.158,136.929,254.02,136.94,253.884,136.94z"/>
			</g>
		</g>
		<g>
			<g>
				<path fill="#1E9CCE" d="M286.655,161.895c-1.499,0-3.014-0.195-4.531-0.589c-8.369-2.17-15.802-10.295-18.075-19.757
					c-1.969-8.194,0.302-15.908,6.229-21.163c1-0.886,2.529-0.794,3.416,0.206c0.887,1,0.795,2.529-0.205,3.416
					c-6.223,5.517-5.636,12.65-4.733,16.411c1.845,7.675,7.978,14.488,14.584,16.203c5.134,1.333,10.104-0.418,14.377-5.064
					c0.903-0.984,2.435-1.048,3.419-0.144c0.982,0.905,1.047,2.436,0.143,3.419C297.01,159.474,291.938,161.894,286.655,161.895z"/>
			</g>
		</g>
		<g>
			<g>
				<g>
					<path fill="#F9EB2A" d="M412.249,17L278.8,118.362c0,0-20.159,11.822-6.39,30.556c15.309,20.826,31.833-2.87,31.833-2.87
						L412.249,17z"/>
				</g>
			</g>
			<g>
				<g>
					<g>
						<path fill="#FFCD1E" d="M272.41,148.917c15.309,20.826,31.833-2.87,31.833-2.87L412.249,17L278.8,118.362
							C278.8,118.362,258.641,130.184,272.41,148.917z M328.422,108.424l-10.541,12.593c-3.752-5.963-6.307-12.636-7.486-19.613
							l13.188-10.019C324.333,97.299,325.974,103.042,328.422,108.424z M328.821,87.406l15.737-11.952
							c0.079,4.05,0.563,8.052,1.455,11.953l-13.555,16.194C330.425,98.455,329.184,92.994,328.821,87.406z M376.013,51.563
							L350.68,81.832c-0.503-3.514-0.655-7.095-0.437-10.696L376.013,51.563z M301.861,140.161
							c-6.147-6.293-10.611-14-13.057-22.357l16.624-12.63c1.602,7.264,4.55,14.17,8.694,20.333L301.861,140.161z M281.637,123.2
							l0.286-0.17l2.14-1.625c2.87,8.643,7.716,16.579,14.222,23.106c-2.68,3.063-8.883,9.079-14.69,6.867
							c-2.229-0.849-4.471-2.793-6.668-5.781c-3.094-4.211-4.245-8.035-3.511-11.69C274.716,127.423,281.592,123.226,281.637,123.2z
							"/>
					</g>
				</g>
			</g>
		</g>
	</g>
	<g>
		<g>
			<path fill="#FFFFFF" d="M106.743,169.824c-4.714-2.933-9.5-5.747-14.63-8.602c-4.439-2.471-9.198-5.07-13.915-7.338l-1.901-0.914
				l0.79-1.956c0.485-1.202,1.15-2.565,1.977-4.051c4.042-7.261,9.313-11.259,14.843-11.259c2.053,0,4.087,0.553,6.044,1.642
				c3.939,2.192,6.187,5.833,6.431,10.253c2.118-0.66,4.969-1.745,8.184-3.125l2.091-0.898l4.68,11.25l-2.764,0.489
				c-2.004,0.354-5.858,1.558-9.1,2.732c1.146,0.698,2.147,1.333,3.067,1.945l1.732,1.151l-5.524,9.928L106.743,169.824z
				 M92.49,148.285c0.997,0.512,2.052,1.08,3.167,1.692c0.076-1.496-0.477-1.961-1.25-2.391c-0.213-0.119-0.394-0.179-0.539-0.179
				C93.714,147.406,93.275,147.495,92.49,148.285z"/>
			<path fill="#1E9CCE" d="M93.908,137.953c1.641,0,3.301,0.44,4.949,1.358c4.084,2.272,5.879,6.254,5.138,11.189
				c2.51-0.352,7.338-2.19,11.459-3.959l2.728,6.558c-3.366,0.595-10.822,3.182-13.799,4.559c2.804,1.612,4.999,2.937,6.913,4.208
				l-3.364,6.046c-4.699-2.923-9.58-5.794-14.724-8.657c-4.593-2.557-9.287-5.118-14.034-7.4c0.407-1.008,1.005-2.268,1.857-3.799
				C84.616,141.614,89.178,137.954,93.908,137.953 M97.267,153.441c1.05-3.735,1.061-6.25-1.766-7.822
				c-0.556-0.31-1.097-0.463-1.633-0.463c-1.584,0-3.124,1.338-4.877,3.937C91.3,150.12,94.126,151.693,97.267,153.441
				 M93.909,133.453L93.909,133.453c-6.385,0.001-12.354,4.41-16.81,12.415c-0.872,1.567-1.578,3.015-2.098,4.304l-1.579,3.912
				l3.801,1.828c4.664,2.242,9.386,4.822,13.795,7.276c5.098,2.837,9.853,5.632,14.536,8.546l4.012,2.496l2.297-4.129l3.364-6.046
				l2.022-3.634l-2.616-1.738c1.734-0.54,3.313-0.971,4.332-1.151l5.527-0.978l-2.156-5.182l-2.728-6.558l-1.748-4.202l-4.182,1.795
				c-2.131,0.915-3.951,1.635-5.458,2.185c-0.946-3.902-3.404-7.113-7.177-9.212C98.75,134.101,96.349,133.453,93.909,133.453
				L93.909,133.453z"/>
		</g>
		<g>
			<path fill="#FFFFFF" d="M116.828,146.281c-4.098,0-8.334-1.641-12.251-4.746c-9.141-7.249-11.545-16.831-5.984-23.845
				c0.338-0.427,0.663-0.764,0.976-1.091c0.141-0.146,0.283-0.294,0.428-0.454l1.612-1.775l8.915,9.196l-2.709,1.265
				c-0.056,0.057-0.158,0.17-0.321,0.376c-0.518,0.653-0.435,1.582,0.244,2.772c0.493-0.706,0.947-1.409,1.338-2.124l1.151-2.102
				l9.992,6.319l-1.19,1.899c-0.543,0.867-1.132,1.746-1.831,2.726c1.506-0.082,2.919-0.979,4.312-2.734l1.255-1.583l9.864,6.229
				l-1.556,1.963C127.074,143.615,122.148,146.281,116.828,146.281z"/>
			<path fill="#1E9CCE" d="M101.662,117.658l5.047,5.206c-0.273,0.127-0.587,0.452-0.978,0.944c-1.591,2.007-0.935,4.65,2.034,7.921
				c1.222-1.612,2.386-3.154,3.284-4.793l6.073,3.841c-1.081,1.724-2.322,3.435-3.739,5.293c1.247,0.589,2.442,0.884,3.586,0.884
				c2.303,0,4.4-1.194,6.303-3.593l6.038,3.812c-3.632,4.581-7.959,6.858-12.482,6.858c-3.577,0-7.277-1.424-10.854-4.259
				c-7.886-6.253-10.448-14.593-5.619-20.684C100.775,118.56,101.208,118.158,101.662,117.658 M101.555,111.083l-3.224,3.55
				c-0.131,0.144-0.26,0.277-0.386,0.409c-0.333,0.347-0.71,0.741-1.115,1.25c-6.298,7.943-3.688,19.048,6.349,27.006
				c4.319,3.424,9.039,5.233,13.649,5.233c6.032,0,11.567-2.961,16.009-8.563l3.112-3.926l-4.236-2.675l-6.038-3.812l-3.417-2.157
				l-0.688,0.867l-2.042-1.292l-6.073-3.841l-0.563-0.356l-2.952-3.045l-5.047-5.206L101.555,111.083L101.555,111.083z"/>
		</g>
		<g>
			<path fill="#FFFFFF" d="M128.773,136.585c-4.626-2.653-9.104-6.344-12.609-10.393c-7.362-8.507-7.66-19.047-0.709-25.062
				c2.694-2.332,6.052-3.564,9.711-3.564c5.542,0,11.118,2.769,15.296,7.597c1.622,1.875,3.841,4.442,8.631,14.136l0.977,1.977
				l-10.371,5.389l-1.004-2.095c-0.606-1.263-1.441-2.875-2.531-4.88c-1.099,1.893-2.05,4.066-2.67,6.14
				c0.466,0.327,0.962,0.62,1.5,0.938l2.38,1.412l-6.85,9.411L128.773,136.585z M125.242,109.156c-0.885,0-1.624,0.25-2.195,0.745
				c-0.325,0.281-1.31,1.133-0.96,3.285c0.232,1.43,0.995,3.029,2.173,4.583c1.183-2.735,2.803-5.479,4.346-7.602
				C127.473,109.513,126.307,109.156,125.242,109.156z"/>
			<path fill="#1E9CCE" d="M125.166,99.816c4.746,0,9.792,2.425,13.595,6.819c1.586,1.834,3.729,4.378,8.315,13.66l-6.353,3.301
				c-0.886-1.848-2.289-4.498-4.349-8.182c-2.233,2.706-4.458,7.069-5.428,11.236c1.014,0.965,2.054,1.549,3.154,2.202l-4.208,5.781
				c-4.13-2.369-8.469-5.803-12.027-9.914c-6.38-7.373-7.122-16.537-0.938-21.888C119.293,100.784,122.17,99.817,125.166,99.816
				 M125.128,122.058c1.105-4.284,4.292-9.597,6.687-12.323c-2.054-1.831-4.439-2.829-6.574-2.829c-1.379,0-2.654,0.417-3.668,1.294
				c-3.093,2.675-2.016,7.627,1.659,11.874C123.881,120.821,124.501,121.471,125.128,122.058 M125.167,95.316h-0.002
				c-4.208,0-8.075,1.422-11.183,4.112c-7.936,6.868-7.734,18.743,0.48,28.236c3.667,4.235,8.351,8.096,13.191,10.872l3.501,2.009
				l2.375-3.264l4.208-5.781l1.501-2.062l3.558-1.849l6.353-3.301l3.913-2.033l-1.953-3.953c-4.541-9.191-6.823-12.156-8.946-14.61
				C137.557,98.369,131.362,95.316,125.167,95.316L125.167,95.316z M124.29,112.706c-0.108-0.812,0.125-1.014,0.228-1.103
				c0.123-0.106,0.304-0.169,0.542-0.19C124.799,111.834,124.542,112.266,124.29,112.706L124.29,112.706z"/>
		</g>
		<g>
			<path fill="#FFFFFF" d="M148.52,121.07c-1.646-1.928-3.386-4.582-5.319-8.111c-4-7.299-7.369-15.367-10.014-23.981l-0.538-1.753
				l1.608-0.881c5.089-2.789,9.845-4.203,14.135-4.203c5.659,0,10.194,2.59,12.771,7.293c6.029,11-0.409,24.664-9.528,31.935
				l-1.702,1.357L148.52,121.07z M146.99,93.756c0.915,2.47,2.18,5.313,3.785,8.507c0.237-2.569-0.004-5.318-0.792-6.754
				c-0.673-1.229-1.548-1.753-2.924-1.753C147.037,93.756,147.013,93.756,146.99,93.756z"/>
			<path fill="#1E9CCE" d="M148.392,84.391c4.74,0,8.544,2.012,10.797,6.125c5.313,9.694-0.329,22.214-8.958,29.094
				c-1.579-1.851-3.266-4.461-5.057-7.732c-3.952-7.212-7.224-15.052-9.836-23.561C140.085,85.716,144.547,84.392,148.392,84.391
				 M151.393,108.265c2.009-3.252,2.356-10.565,0.565-13.836c-1.068-1.948-2.7-2.922-4.898-2.922c-0.914,0-1.926,0.169-3.037,0.506
				C145.308,96.227,147.765,101.645,151.393,108.265 M148.393,79.891L148.393,79.891c-4.673,0-9.793,1.507-15.217,4.48l-3.215,1.762
				l1.076,3.505c2.69,8.76,6.119,16.97,10.192,24.402c2.008,3.666,3.833,6.443,5.58,8.49l2.826,3.311l3.403-2.713
				c9.837-7.843,16.72-22.697,10.099-34.776C160.146,82.896,154.911,79.891,148.393,79.891L148.393,79.891z"/>
		</g>
		<g>
			<path fill="#FFFFFF" d="M173.818,105.933c-0.896-3.746-1.9-7.279-3.465-12.191c-5.361-0.714-10.725-5.841-12.84-12.481
				c-0.443-1.389-0.728-2.772-0.87-4.226l-0.223-2.281l11.74-0.927l0.056,2.378c0.013,0.557,0.21,1.248,0.402,1.851
				c0.823,2.581,2.541,4.381,3.568,4.381h0c0.088,0,0.174-0.014,0.263-0.042c1.023-0.326,2.737-0.872,1.333-5.279
				c-0.794-2.496-1.068-3.102-1.149-3.247l-1.6-2.472l2.825-0.863l8.756-2.789l0.779,1.939c0.476,1.184,0.891,2.332,1.235,3.414
				c2.514,7.891,1.52,13.151-3.358,17.27c0.813,3.072,1.644,5.923,2.581,8.865c0.188,0.593,0.388,1.181,0.585,1.765
				c0.203,0.598,0.403,1.19,0.589,1.776l0.704,2.212l-11.367,3.23L173.818,105.933z"/>
			<path fill="#1E9CCE" d="M181.307,70.522c0.454,1.129,0.852,2.229,1.178,3.256c2.564,8.049,0.958,12.333-3.764,15.723
				c0.987,3.835,1.951,7.16,2.988,10.414c0.382,1.199,0.806,2.384,1.174,3.54l-6.876,1.954c-0.995-4.163-2.068-7.829-3.515-12.368
				c-0.164-0.514-0.313-0.984-0.563-1.472c-0.103,0.004-0.206,0.006-0.308,0.006c-5.019,0-10.093-5.125-11.964-10.999
				c-0.396-1.241-0.649-2.481-0.774-3.762l7.084-0.559c0.019,0.796,0.235,1.624,0.507,2.479c1.002,3.145,3.299,5.95,5.712,5.95
				c0.314,0,0.63-0.047,0.946-0.148c4.11-1.309,3.776-5.022,2.795-8.105c-0.654-2.055-1.107-3.326-1.385-3.756L181.307,70.522
				 M183.924,64.966l-3.983,1.269l-6.765,2.155l-5.612,1.787l0.887,1.37l-2.838,0.224l-7.084,0.559l-4.57,0.36l0.446,4.563
				c0.157,1.614,0.473,3.149,0.966,4.692c1.938,6.085,6.929,12.237,13.248,13.77c1.319,4.204,2.211,7.389,3.013,10.741l1.091,4.565
				l4.515-1.283l6.876-1.954l4.467-1.27l-1.409-4.424c-0.19-0.598-0.395-1.204-0.602-1.814c-0.193-0.571-0.388-1.146-0.572-1.726
				c-0.792-2.486-1.506-4.905-2.199-7.452c4.614-4.583,5.55-10.602,2.975-18.686c-0.359-1.131-0.794-2.333-1.291-3.568
				L183.924,64.966L183.924,64.966z M172.055,79.781c-0.421-0.49-0.947-1.322-1.294-2.411c-0.238-0.749-0.292-1.076-0.295-1.218
				l-0.036-1.546l0.236,0.365c0.097,0.227,0.362,0.908,0.973,2.828C171.947,78.767,172.038,79.399,172.055,79.781L172.055,79.781z"
				/>
		</g>
		<g>
			<path fill="#FFFFFF" d="M190.559,104.273c-3.128,0-5.75-2.092-6.375-5.088c-0.719-3.446,1.598-6.855,5.164-7.601
				c0.457-0.095,0.926-0.144,1.395-0.144c3.113,0,5.815,2.117,6.424,5.033c0.723,3.471-1.609,6.903-5.199,7.653
				C191.503,104.224,191.029,104.273,190.559,104.273z"/>
			<path fill="#1E9CCE" d="M190.742,93.69c1.968,0,3.809,1.267,4.222,3.243c0.486,2.331-1.125,4.504-3.456,4.991
				c-0.318,0.066-0.636,0.099-0.948,0.099c-1.978,0-3.752-1.285-4.173-3.298c-0.477-2.287,1.091-4.451,3.421-4.938
				C190.118,93.722,190.432,93.69,190.742,93.69 M190.742,89.19L190.742,89.19c-0.623,0-1.247,0.064-1.855,0.192
				c-4.78,0.999-7.878,5.602-6.906,10.261c0.847,4.051,4.375,6.879,8.579,6.879c0.624,0,1.252-0.065,1.867-0.193
				c4.805-1.004,7.919-5.63,6.943-10.314C198.543,92.06,194.915,89.19,190.742,89.19L190.742,89.19z"/>
		</g>
		<g>
			<path fill="#FFFFFF" d="M216.24,103.466c-2.709-0.049-5.255-1.008-7.565-2.85l-1.792-1.43l7.489-9.038l1.74,1.528
				c0.217,0.19,0.303,0.192,0.34,0.193c0.002,0,0.004,0,0.006,0c0.398,0,0.519-0.024,0.538-0.498
				c-0.205-0.443-1.281-1.487-3.2-3.103c-3.825-3.185-7.356-7.028-7.237-13.475c0.121-6.731,4.646-11.254,11.259-11.254l0.272,0.002
				c3.193,0.058,5.977,1.137,7.443,2.887l1.183,1.412l-7.382,9.235l-1.14-1.448c0.225,1.446,1.375,2.433,3.494,4.136
				c0.773,0.621,1.65,1.325,2.511,2.123c3.098,2.878,4.511,5.822,4.447,9.265c-0.124,6.791-5.59,12.316-12.184,12.316
				L216.24,103.466z"/>
			<path fill="#1E9CCE" d="M217.817,65.791c0.077,0,0.154,0,0.231,0.002c2.157,0.039,4.573,0.667,5.76,2.083l-4.461,5.581
				c-0.395-0.501-0.929-0.781-1.558-0.792c-0.017,0-0.033,0-0.05,0c-1.182,0-1.807,0.752-1.835,2.303
				c-0.072,3.953,3.45,5.5,6.765,8.572c2.96,2.75,3.771,5.191,3.727,7.573c-0.102,5.554-4.449,10.108-9.934,10.108
				c-0.061,0-0.12,0-0.181-0.001c-2.202-0.04-4.299-0.842-6.203-2.36l4.549-5.49c0.575,0.505,1.155,0.74,1.783,0.752
				c0.024,0,0.047,0,0.071,0c1.581,0,2.733-0.965,2.767-2.78c0.02-1.124-0.949-2.22-4.003-4.792
				c-3.586-2.986-6.539-6.186-6.437-11.712C208.903,69.563,212.209,65.791,217.817,65.791 M217.817,61.291L217.817,61.291
				c-7.811,0-13.366,5.537-13.509,13.464c-0.131,7.121,3.508,11.378,7.587,14.855l-0.734,0.886l-4.549,5.49l-2.926,3.531
				l3.585,2.859c2.668,2.128,5.755,3.283,8.927,3.34l0.263,0.002c7.812,0,14.287-6.516,14.433-14.526
				c0.075-4.071-1.613-7.654-5.163-10.952c-0.923-0.855-1.832-1.586-2.635-2.23c-0.377-0.303-0.703-0.569-0.986-0.806l0.751-0.939
				l4.461-5.581l2.301-2.877l-2.367-2.823c-2.708-3.231-7.284-3.658-9.127-3.691C218.025,61.292,217.922,61.291,217.817,61.291
				L217.817,61.291z"/>
		</g>
		<g>
			<path fill="#FFFFFF" d="M242.347,104.946c-11.426-1.927-17.318-10.272-15.379-21.781c1.735-10.293,7.879-16.945,15.653-16.945
				c0.772,0,1.562,0.067,2.347,0.2c0.537,0.091,0.988,0.211,1.426,0.328c0.196,0.052,0.396,0.106,0.605,0.156l2.333,0.556
				l-3.756,12.248l-2.415-1.765c-0.077-0.021-0.225-0.056-0.482-0.099c-0.11-0.019-0.217-0.028-0.321-0.028
				c-0.771,0-1.441,0.694-1.982,1.58c0.845,0.09,1.666,0.148,2.464,0.148h2.39l-0.104,2.386l-0.569,9.408l-2.236-0.125
				c-1.021-0.058-2.076-0.149-3.278-0.289c0.81,1.311,2.258,2.084,4.481,2.459l1.993,0.336l-0.697,11.646L242.347,104.946z"/>
			<path fill="#1E9CCE" d="M242.621,68.47c0.645,0,1.303,0.055,1.973,0.168c0.666,0.112,1.226,0.297,1.884,0.454l-2.126,6.933
				c-0.243-0.178-0.679-0.296-1.3-0.401c-0.236-0.04-0.468-0.06-0.694-0.06c-2.2,0-3.963,1.875-5.263,5.663
				c1.988,0.29,3.889,0.565,5.744,0.565c0.013,0,0.026,0,0.039,0l-0.434,7.171c-2.032-0.114-4.129-0.377-6.441-0.721
				c0.259,4.145,2.625,6.594,7.145,7.356l-0.427,7.128c-10.323-1.741-15.252-8.997-13.534-19.188
				C230.713,74.482,235.901,68.471,242.621,68.47 M242.622,63.97L242.622,63.97c-8.931,0-15.946,7.388-17.873,18.821
				c-2.138,12.682,4.623,22.249,17.224,24.374l4.94,0.833l0.3-5.001l0.427-7.128l0.241-4.035l-1.091-0.184l0.146-2.414l0.434-7.171
				l0.04-0.663l1.244-4.057l2.125-6.933l1.407-4.586l-4.667-1.111c-0.189-0.045-0.368-0.094-0.545-0.141
				c-0.465-0.124-0.991-0.265-1.633-0.373C244.434,64.048,243.519,63.97,242.622,63.97L242.622,63.97z"/>
		</g>
		<g>
			<path fill="#FFFFFF" d="M243.709,103.778l0.666-2.149c3.01-9.705,5.166-16.879,6.428-21.385l-3.461-1.074l3.436-11.079
				l2.148,0.667c1.233,0.382,4.118,1.3,7.032,2.227c2.973,0.946,5.977,1.901,7.276,2.305l2.149,0.666l-3.436,11.08l-4.061-1.259
				c-1.196,4.224-2.515,8.656-4.01,13.478l-3.091,9.96L243.709,103.778z"/>
			<path fill="#1E9CCE" d="M252.26,70.907c2.489,0.772,11.733,3.733,14.309,4.532l-2.103,6.781l-4.12-1.278
				c-1.203,4.332-2.688,9.422-4.617,15.646l-2.424,7.811l-6.78-2.103c3.554-11.46,5.891-19.297,7.023-23.556l-3.391-1.052
				L252.26,70.907 M249.294,65.276l-1.332,4.298l-2.103,6.781l-1.333,4.297l3.512,1.089c-1.294,4.492-3.24,10.927-5.812,19.221
				l-1.333,4.298l4.298,1.333l6.78,2.103l4.298,1.333l1.333-4.297l2.424-7.811c1.241-4.004,2.362-7.741,3.393-11.314l4.013,1.245
				l1.332-4.299l2.103-6.781l1.333-4.298L267.9,71.14c-1.297-0.402-4.294-1.355-7.259-2.299c-2.922-0.93-5.813-1.85-7.049-2.232
				L249.294,65.276L249.294,65.276z"/>
		</g>
		<g>
			<path fill="#FFFFFF" d="M260.174,110.384c-0.877,0-1.736-0.166-2.558-0.495c-1.614-0.646-2.897-1.851-3.612-3.395
				c-0.743-1.603-0.79-3.389-0.134-5.029c0.963-2.408,3.304-3.965,5.964-3.965c0.87,0,1.726,0.166,2.543,0.493
				c3.404,1.362,5.112,5.128,3.808,8.397C265.212,108.817,262.854,110.384,260.174,110.384z"/>
			<path fill="#1E9CCE" d="M259.834,99.751c0.567,0,1.146,0.107,1.707,0.332c2.169,0.868,3.42,3.304,2.554,5.474
				c-0.66,1.648-2.242,2.578-3.921,2.578c-0.574,0-1.158-0.108-1.722-0.333c-2.21-0.884-3.378-3.288-2.493-5.499
				C256.606,100.682,258.165,99.751,259.834,99.751 M259.834,95.251c-3.586,0-6.747,2.112-8.054,5.38
				c-0.888,2.22-0.824,4.639,0.182,6.809c0.957,2.066,2.669,3.678,4.819,4.538c1.087,0.435,2.229,0.655,3.393,0.655
				c3.604,0,6.783-2.121,8.099-5.404c1.767-4.424-0.505-9.502-5.06-11.325C262.128,95.471,260.991,95.251,259.834,95.251
				L259.834,95.251z"/>
		</g>
		<g>
			<path fill="#FFFFFF" d="M320.173,170.518c-0.282-0.406-0.516-0.847-0.723-1.236c-5.073-9.622-1.796-18.984,8.55-24.441
				c3.9-2.058,7.886-3.145,11.523-3.145c5.72,0,10.235,2.586,12.713,7.282c0.252,0.479,0.428,0.91,0.583,1.291
				c0.076,0.186,0.152,0.375,0.242,0.576l0.958,2.152l-11.364,4.444l-0.547-2.6c-0.022-0.108-0.079-0.253-0.15-0.389
				c-0.403-0.764-1.273-1.151-2.588-1.151c-1.642,0-3.757,0.639-5.956,1.799c-5.707,3.011-4.962,6.288-3.48,9.096l0.942,1.788
				l-9.438,6.354L320.173,170.518z"/>
			<path fill="#1E9CCE" d="M339.523,143.945c4.674,0,8.578,2.017,10.723,6.082c0.313,0.596,0.485,1.115,0.76,1.731l-6.695,2.619
				c-0.067-0.32-0.195-0.659-0.363-0.977c-0.825-1.563-2.451-2.35-4.577-2.35c-1.981,0-4.398,0.684-7.006,2.059
				c-5.644,2.978-7.125,7.01-4.421,12.136l-5.923,3.988c-0.206-0.296-0.396-0.654-0.585-1.012
				c-4.778-9.062-1.129-16.779,7.614-21.392C332.689,144.911,336.291,143.946,339.523,143.945 M339.524,139.445h-0.002
				c-4.002,0-8.35,1.178-12.572,3.405c-11.573,6.105-15.211,16.631-9.495,27.471c0.232,0.438,0.512,0.964,0.871,1.481l2.53,3.64
				l3.678-2.476l5.923-3.988l3.353-2.257l-1.886-3.575c-1.176-2.229-1.634-3.854,2.54-6.057c1.854-0.978,3.643-1.539,4.906-1.539
				c0.278,0,0.477,0.029,0.601,0.058l1.03,4.896l4.948-1.936l6.695-2.619l4.388-1.716l-1.915-4.304
				c-0.079-0.178-0.147-0.347-0.215-0.512c-0.166-0.406-0.372-0.912-0.673-1.484C351.382,142.537,346.023,139.445,339.524,139.445
				L339.524,139.445z"/>
		</g>
		<g>
			<path fill="#FFFFFF" d="M325.244,184.875c-3.963-10.889,0.388-20.133,11.354-24.125c3.153-1.148,6.228-1.73,9.137-1.73
				c6.983,0,12.199,3.324,14.311,9.121c0.185,0.51,0.303,0.96,0.416,1.396c0.052,0.198,0.104,0.399,0.164,0.608l0.67,2.304
				l-12.513,2.781l0.35-2.974c-0.021-0.078-0.063-0.222-0.151-0.465c-0.13-0.357-0.426-1.169-2.485-1.238
				c0.343,0.79,0.703,1.542,1.103,2.244l1.187,2.081l-10.615,5.203l-0.994-2.009c-0.449-0.907-0.894-1.879-1.364-2.992
				c-0.74,1.352-0.698,2.992,0.073,5.111l0.691,1.899l-10.475,5.141L325.244,184.875z"/>
			<path fill="#1E9CCE" d="M345.734,161.269c5.773,0,10.361,2.603,12.196,7.641c0.229,0.633,0.346,1.213,0.534,1.862l-7.078,1.573
				c0.035-0.299-0.077-0.737-0.293-1.328c-0.657-1.806-2.282-2.721-4.886-2.721c-0.867,0-1.843,0.102-2.927,0.305
				c0.734,1.885,1.437,3.685,2.362,5.308l-6.452,3.162c-0.902-1.824-1.71-3.776-2.551-5.957c-3.477,2.27-4.439,5.538-2.871,9.844
				l-6.411,3.146c-3.58-9.838,0.297-17.706,10.009-21.241C340.301,161.795,343.138,161.269,345.734,161.269 M345.734,156.769
				L345.734,156.769c-3.172,0-6.506,0.628-9.907,1.866c-12.083,4.399-17.067,15-12.697,27.009l1.713,4.708l4.498-2.208l6.411-3.146
				l3.629-1.781l-0.379-1.042l2.17-1.063l6.452-3.162l0.597-0.293l4.143-0.92l7.078-1.573l4.684-1.041l-1.339-4.608
				c-0.055-0.188-0.102-0.37-0.148-0.548c-0.12-0.462-0.257-0.986-0.477-1.591C359.741,160.732,353.602,156.769,345.734,156.769
				L345.734,156.769z"/>
		</g>
		<g>
			<path fill="#FFFFFF" d="M326.547,202.948l1.808-2.146c1.311-1.555,3.499-4.948,5.237-7.927c-1.326,0.198-2.501,0.352-3.602,0.472
				l-2.068,0.227l-2.115-11.164l2.34-0.327c5.494-0.767,10.971-1.671,16.742-2.766c4.993-0.948,10.313-2.001,15.385-3.28
				l2.048-0.517l0.646,2.011c0.397,1.24,0.76,2.712,1.076,4.375c2.132,11.249-1.653,19.205-9.879,20.765
				c-0.859,0.163-1.718,0.246-2.551,0.246c-3.439,0-6.535-1.399-8.956-3.999c-1.204,1.864-2.698,4.522-4.281,7.64l-1.03,2.029
				L326.547,202.948z M349.372,190.222c0.739,0.987,1.302,1.105,1.819,1.105c0.001,0,0.001,0,0.001,0
				c0.202,0,0.428-0.023,0.671-0.069c0.321-0.061,0.893-0.169,1.03-1.767C351.799,189.737,350.623,189.977,349.372,190.222z"/>
			<path fill="#1E9CCE" d="M360.824,178.219c0.332,1.035,0.681,2.387,1.008,4.108c1.85,9.756-0.891,16.77-8.087,18.135
				c-0.728,0.138-1.439,0.206-2.132,0.206c-3.672,0-6.799-1.919-8.98-5.507c-1.701,1.877-4.232,6.382-6.263,10.38l-6.295-3.288
				c2.202-2.613,6.271-9.375,7.676-12.339c-3.188,0.558-5.721,0.947-8.006,1.197l-1.288-6.799
				c5.479-0.765,11.067-1.687,16.851-2.784C350.473,180.548,355.717,179.507,360.824,178.219 M351.191,193.577
				c0.343,0,0.705-0.036,1.091-0.109c2.472-0.469,3.199-2.665,2.773-6.837c-2.431,0.689-5.608,1.292-9.14,1.962
				C347.309,191.704,348.715,193.577,351.191,193.577 M363.819,172.822l-4.096,1.033c-5.015,1.265-10.295,2.31-15.255,3.251
				c-5.734,1.087-11.175,1.986-16.634,2.748l-4.679,0.653l0.88,4.642l1.288,6.799l0.774,4.089l3.123-0.342
				c-0.986,1.525-1.921,2.867-2.587,3.658l-3.617,4.291l4.975,2.598l6.295,3.288l4.034,2.107l2.062-4.059
				c1.05-2.069,1.987-3.788,2.792-5.177c2.447,1.81,5.318,2.767,8.438,2.767c0.974,0,1.973-0.096,2.971-0.285
				c7.515-1.426,14.527-8.32,11.669-23.395c-0.333-1.755-0.718-3.317-1.144-4.645L363.819,172.822L363.819,172.822z"/>
		</g>
		<g>
			<path fill="#FFFFFF" d="M329.479,221.668c-0.288-11.583,6.781-18.959,18.447-19.249c0.27-0.006,0.539-0.01,0.806-0.01
				c11.188,0,18.85,5.822,19.063,14.487c0.015,0.546-0.019,1.018-0.051,1.474c-0.014,0.199-0.028,0.402-0.037,0.614l-0.104,2.392
				l-12.744-1.351l1.282-2.709c0.006-0.081,0.012-0.232,0.006-0.494c-0.021-0.831-0.68-1.49-1.963-1.969
				c0.073,0.86,0.175,1.691,0.331,2.49l0.46,2.35l-11.718,1.548l-0.303-2.22c-0.138-1.015-0.249-2.068-0.341-3.271
				c-1.132,1.045-1.614,2.614-1.56,4.868l0.05,2.02l-11.563,1.535L329.479,221.668z"/>
			<path fill="#1E9CCE" d="M348.731,204.66c9.674,0,16.627,4.716,16.814,12.293c0.018,0.674-0.058,1.26-0.087,1.935l-7.211-0.765
				c0.129-0.272,0.162-0.723,0.147-1.352c-0.064-2.56-2.262-4.169-6.636-4.779c0.095,2.02,0.188,3.95,0.547,5.784l-7.123,0.941
				c-0.274-2.016-0.417-4.125-0.52-6.459c-4.02,1.043-5.972,3.833-5.859,8.416l-7.077,0.939
				c-0.26-10.466,5.924-16.687,16.254-16.944C348.232,204.663,348.483,204.66,348.731,204.66 M348.731,200.16
				c-0.285,0-0.573,0.003-0.861,0.011c-12.856,0.319-20.958,8.78-20.642,21.554l0.125,5.008l4.966-0.659l7.077-0.939l4.006-0.532
				l-0.027-1.107l2.397-0.316l7.123-0.941l0.659-0.087l4.219,0.448l7.211,0.765l4.763,0.505l0.208-4.785
				c0.008-0.192,0.021-0.375,0.034-0.555c0.034-0.485,0.072-1.036,0.055-1.693C369.798,206.863,361.232,200.16,348.731,200.16
				L348.731,200.16z"/>
		</g>
		<g>
			<path fill="#FFFFFF" d="M347.585,253.652c-1.29,0-2.604-0.107-3.904-0.32c-2.442-0.398-5.787-0.944-15.686-5.321l-2.017-0.892
				l4.51-10.784l2.114,0.965c1.274,0.582,2.948,1.284,5.07,2.126c-0.37-2.159-1.032-4.437-1.885-6.426
				c-0.564,0.048-1.131,0.141-1.756,0.243l-2.728,0.442l-0.773-11.615l1.987-0.351c2.72-0.48,5.573-0.724,8.481-0.724
				c2.679,0,5.323,0.21,7.859,0.624c5.208,0.851,9.739,3.106,12.761,6.353c3.222,3.462,4.587,7.878,3.843,12.434
				C364.188,248.205,356.837,253.652,347.585,253.652z M348.042,233.275c0.845,2.856,1.359,5.999,1.535,8.615
				c2.4-0.423,4.169-1.705,4.438-3.354C354.442,235.917,351.382,234.054,348.042,233.275z"/>
			<path fill="#1E9CCE" d="M341,223.245c2.468,0,5,0.187,7.497,0.595c9.623,1.571,16.063,8.133,14.745,16.203
				c-1.138,6.96-7.773,11.36-15.657,11.36c-1.158,0-2.343-0.095-3.542-0.291c-2.396-0.391-5.67-0.971-15.138-5.158l2.763-6.606
				c1.864,0.851,4.638,1.987,8.581,3.496c-0.02-3.508-1.105-8.285-3.032-12.104c-0.227-0.015-0.447-0.022-0.664-0.022
				c-1.115,0-2.111,0.181-3.167,0.352l-0.476-7.134C335.416,223.492,338.165,223.245,341,223.245 M347.824,244.29
				c4.333,0,7.879-2.129,8.411-5.392c0.659-4.035-3.34-7.147-8.883-8.053c-0.976-0.159-1.869-0.26-2.727-0.309
				c1.896,3.998,2.855,10.118,2.764,13.746C347.535,244.288,347.681,244.29,347.824,244.29 M341,218.745
				c-3.039,0-6.024,0.255-8.873,0.759l-3.976,0.702l0.269,4.028l0.476,7.134l0.17,2.54l-1.549,3.703l-2.763,6.606l-1.701,4.068
				l4.032,1.784c9.385,4.15,13.034,4.962,16.233,5.484c1.42,0.232,2.855,0.35,4.267,0.35c10.378,0,18.642-6.224,20.099-15.134
				c0.858-5.258-0.71-10.347-4.417-14.331c-3.358-3.609-8.347-6.109-14.044-7.04C346.566,218.965,343.8,218.745,341,218.745
				L341,218.745z M351.501,238.668c-0.07-0.494-0.15-0.995-0.239-1.498c0.394,0.369,0.578,0.724,0.532,1.002
				C351.77,238.327,351.669,238.498,351.501,238.668L351.501,238.668z"/>
		</g>
		<g>
			<path fill="#FFFFFF" d="M354.007,270.537c-2.305-1.504-13.255-7.616-17.86-9.229c-1.07-0.374-1.964-0.563-2.656-0.563
				c-0.739,0-1.855,0-2.963,3.165l-0.743,2.124l-10.949-3.831l0.743-2.124c2.476-7.072,7.396-10.967,13.853-10.967
				c2.065,0,4.272,0.406,6.562,1.208c5.095,1.782,17.375,8.365,19.617,10.016l1.483,1.093l-4.915,10.526L354.007,270.537z"/>
			<path fill="#1E9CCE" d="M333.431,251.361c1.803,0,3.749,0.357,5.818,1.081c5.005,1.751,17.058,8.254,19.025,9.704l-3.038,6.506
				c-2.519-1.644-13.555-7.791-18.347-9.468c-1.303-0.456-2.425-0.69-3.399-0.69c-2.453,0-3.972,1.484-5.087,4.671l-6.701-2.345
				C323.876,254.61,327.994,251.361,333.431,251.361 M333.432,246.861L333.432,246.861c-7.379,0-13.202,4.547-15.977,12.474
				l-1.487,4.248l4.248,1.486l6.701,2.345l4.247,1.486l1.486-4.247c0.369-1.056,0.674-1.502,0.802-1.658c0.011,0,0.023,0,0.037,0
				c0.248,0,0.825,0.057,1.915,0.438c4.272,1.495,15.02,7.452,17.372,8.988l4.343,2.835l2.194-4.699l3.038-6.506l1.56-3.34
				l-2.968-2.187c-2.379-1.753-14.842-8.451-20.208-10.329C338.207,247.31,335.75,246.861,333.432,246.861L333.432,246.861z"/>
		</g>
		<g>
			<path fill="#FFFFFF" d="M347.508,283.372c-1.866-1.087-7.563-3.965-12.395-6.188c-2.645-1.218-4.407-1.97-5.548-2.368
				l-2.34-0.815l0.644-1.397c-0.918,0.544-1.955,0.852-3.005,0.852c-0.784,0-1.542-0.166-2.252-0.492
				c-2.905-1.338-4.087-4.991-2.637-8.143c1.048-2.278,3.249-3.75,5.607-3.75c0.791,0,1.556,0.167,2.273,0.498
				c1.733,0.798,2.852,2.354,3.184,4.146l0.862-1.875l1.938,0.69c2.421,0.863,8.366,3.395,13.253,5.645
				c2.497,1.15,4.625,2.229,5.694,2.886l1.699,1.045l-4.839,10.512L347.508,283.372z"/>
			<path fill="#1E9CCE" d="M325.583,263.321c0.448,0,0.9,0.092,1.333,0.292c1.796,0.827,2.51,3.036,1.553,5.117
				c-0.68,1.475-2.134,2.476-3.604,2.476c-0.442,0-0.887-0.091-1.312-0.286c-1.836-0.846-2.416-3.24-1.533-5.158
				C322.694,264.295,324.125,263.321,325.583,263.321 M333.086,266.65c2.379,0.848,8.374,3.408,13.067,5.569
				c2.448,1.127,4.493,2.167,5.456,2.759l-2.969,6.449c-2.027-1.181-7.811-4.09-12.587-6.288c-2.448-1.127-4.427-1.988-5.748-2.448
				L333.086,266.65 M325.583,258.821L325.583,258.821c-3.234,0-6.237,1.986-7.651,5.059c-1.969,4.279-0.292,9.271,3.738,11.127
				c1.009,0.464,2.083,0.699,3.194,0.699c0.13,0,0.26-0.003,0.39-0.01l3.571,1.245c1.056,0.368,2.805,1.116,5.347,2.286
				c4.776,2.198,10.382,5.027,12.203,6.089l4.281,2.494l2.072-4.5l2.969-6.449l1.668-3.625l-3.398-2.09
				c-1.158-0.712-3.32-1.811-5.932-3.013c-4.938-2.273-10.966-4.839-13.438-5.72l-3.443-1.227c-0.656-0.675-1.445-1.241-2.354-1.66
				C327.782,259.058,326.701,258.821,325.583,258.821L325.583,258.821z"/>
		</g>
	</g>
	<g>
		<g>
			<path fill="#FFFFFF" d="M81.031,148.057c4.83-8.677,11.428-12.308,17.826-8.746c4.084,2.272,5.879,6.254,5.138,11.189
				c2.51-0.352,7.338-2.19,11.459-3.959l2.728,6.558c-3.366,0.595-10.822,3.182-13.799,4.559c2.804,1.612,4.999,2.937,6.913,4.208
				l-3.364,6.046c-4.699-2.923-9.58-5.794-14.724-8.657c-4.593-2.557-9.287-5.118-14.034-7.4
				C79.581,150.848,80.179,149.588,81.031,148.057z M97.267,153.441c1.05-3.735,1.061-6.25-1.766-7.822
				c-2.199-1.224-4.164-0.003-6.51,3.474C91.3,150.12,94.126,151.693,97.267,153.441z"/>
		</g>
		<g>
			<path fill="#FFFFFF" d="M106.708,122.864c-0.273,0.127-0.587,0.452-0.978,0.944c-1.591,2.007-0.935,4.65,2.034,7.921
				c1.222-1.612,2.386-3.154,3.284-4.793l6.073,3.841c-1.081,1.724-2.322,3.435-3.739,5.293c3.755,1.773,7.042,0.882,9.889-2.709
				l6.038,3.812c-6.504,8.204-15.237,9.02-23.336,2.599c-7.886-6.253-10.448-14.593-5.619-20.684c0.419-0.529,0.852-0.93,1.306-1.43
				L106.708,122.864z"/>
		</g>
		<g>
			<path fill="#FFFFFF" d="M140.723,123.597c-0.886-1.848-2.289-4.498-4.349-8.182c-2.233,2.706-4.458,7.069-5.428,11.236
				c1.014,0.965,2.054,1.549,3.154,2.202l-4.208,5.781c-4.13-2.369-8.469-5.803-12.027-9.914c-6.38-7.373-7.122-16.537-0.938-21.888
				c6.116-5.292,15.629-3.364,21.834,3.804c1.586,1.834,3.729,4.378,8.315,13.66L140.723,123.597z M121.574,108.2
				c-3.093,2.675-2.016,7.627,1.659,11.874c0.648,0.748,1.269,1.397,1.896,1.984c1.105-4.284,4.292-9.597,6.687-12.323
				C128.434,106.719,124.155,105.965,121.574,108.2z"/>
		</g>
		<g>
			<path fill="#FFFFFF" d="M145.174,111.878c-3.952-7.212-7.224-15.052-9.836-23.561c10.601-5.809,19.771-5.25,23.852,2.198
				c5.313,9.694-0.329,22.214-8.958,29.094C148.652,117.759,146.966,115.148,145.174,111.878z M151.958,94.428
				c-1.512-2.759-4.156-3.564-7.935-2.417c1.285,4.215,3.742,9.633,7.37,16.253C153.402,105.012,153.749,97.699,151.958,94.428z"/>
		</g>
		<g>
			<path fill="#FFFFFF" d="M181.307,70.522c0.454,1.129,0.852,2.229,1.178,3.256c2.564,8.049,0.958,12.333-3.764,15.723
				c0.987,3.835,1.951,7.16,2.988,10.414c0.382,1.199,0.806,2.384,1.174,3.54l-6.876,1.954c-0.995-4.163-2.068-7.829-3.515-12.368
				c-0.164-0.514-0.313-0.984-0.563-1.472c-5.118,0.216-10.363-4.999-12.272-10.993c-0.396-1.241-0.649-2.481-0.774-3.762
				l7.084-0.559c0.019,0.796,0.235,1.624,0.507,2.479c1.133,3.554,3.918,6.675,6.658,5.802c4.11-1.309,3.776-5.022,2.795-8.105
				c-0.654-2.055-1.107-3.326-1.385-3.756L181.307,70.522z"/>
		</g>
		<g>
			<path fill="#FFFFFF" d="M191.507,101.924c-2.332,0.486-4.634-0.869-5.122-3.2c-0.477-2.287,1.091-4.451,3.421-4.938
				c2.288-0.478,4.679,0.859,5.156,3.146C195.449,99.265,193.838,101.438,191.507,101.924z"/>
		</g>
		<g>
			<path fill="#FFFFFF" d="M219.348,73.456c-0.395-0.501-0.929-0.781-1.558-0.792c-1.214-0.021-1.856,0.73-1.885,2.303
				c-0.072,3.953,3.45,5.5,6.765,8.572c2.96,2.75,3.771,5.191,3.727,7.573c-0.103,5.615-4.545,10.208-10.115,10.106
				c-2.202-0.04-4.299-0.842-6.203-2.36l4.549-5.49c0.575,0.505,1.155,0.74,1.783,0.752c1.617,0.029,2.805-0.938,2.838-2.78
				c0.02-1.124-0.949-2.22-4.003-4.792c-3.586-2.986-6.539-6.186-6.437-11.712c0.096-5.346,3.492-9.148,9.241-9.043
				c2.157,0.039,4.573,0.667,5.76,2.083L219.348,73.456z"/>
		</g>
		<g>
			<path fill="#FFFFFF" d="M244.352,76.025c-0.243-0.178-0.679-0.296-1.3-0.401c-2.525-0.426-4.523,1.424-5.957,5.603
				c2.002,0.292,3.915,0.569,5.783,0.565l-0.434,7.171c-2.032-0.114-4.129-0.377-6.441-0.721c0.259,4.145,2.625,6.594,7.145,7.356
				l-0.427,7.128c-10.323-1.741-15.252-8.997-13.534-19.188c1.673-9.925,7.743-16.193,15.407-14.9
				c0.666,0.112,1.226,0.297,1.884,0.454L244.352,76.025z"/>
		</g>
		<g>
			<path fill="#FFFFFF" d="M264.466,82.22l-4.12-1.278c-1.203,4.332-2.688,9.422-4.617,15.646l-2.424,7.811l-6.78-2.103
				c3.554-11.46,5.891-19.297,7.023-23.556l-3.391-1.052l2.103-6.781c2.489,0.772,11.733,3.733,14.309,4.532L264.466,82.22z"/>
		</g>
		<g>
			<path fill="#FFFFFF" d="M258.452,107.8c-2.21-0.884-3.378-3.288-2.493-5.499c0.867-2.169,3.37-3.104,5.582-2.219
				c2.169,0.868,3.42,3.304,2.554,5.474C263.209,107.768,260.664,108.685,258.452,107.8z"/>
		</g>
		<g>
			<path fill="#FFFFFF" d="M344.311,154.377c-0.067-0.32-0.195-0.659-0.363-0.977c-1.594-3.021-6.179-3.142-11.583-0.291
				c-5.644,2.978-7.125,7.01-4.421,12.136l-5.923,3.988c-0.206-0.296-0.396-0.654-0.585-1.012
				c-4.778-9.062-1.129-16.779,7.614-21.392c8.903-4.696,17.568-3.679,21.196,3.197c0.313,0.596,0.485,1.115,0.76,1.731
				L344.311,154.377z"/>
		</g>
		<g>
			<path fill="#FFFFFF" d="M351.387,172.344c0.035-0.299-0.077-0.737-0.293-1.328c-0.876-2.407-3.471-3.231-7.813-2.416
				c0.734,1.885,1.437,3.685,2.362,5.308l-6.452,3.162c-0.902-1.824-1.71-3.776-2.551-5.957c-3.477,2.27-4.439,5.538-2.871,9.844
				l-6.411,3.146c-3.58-9.838,0.297-17.706,10.009-21.241c9.457-3.443,17.903-1.258,20.563,6.046
				c0.229,0.633,0.346,1.213,0.534,1.862L351.387,172.344z"/>
		</g>
		<g>
			<path fill="#FFFFFF" d="M361.832,182.327c1.85,9.756-0.891,16.77-8.087,18.135c-4.591,0.871-8.52-1.037-11.112-5.301
				c-1.701,1.877-4.232,6.382-6.263,10.38l-6.295-3.288c2.202-2.613,6.271-9.375,7.676-12.339c-3.188,0.558-5.721,0.947-8.006,1.197
				l-1.288-6.799c5.479-0.765,11.067-1.687,16.851-2.784c5.165-0.98,10.409-2.021,15.517-3.309
				C361.156,179.254,361.505,180.605,361.832,182.327z M345.916,188.593c1.585,3.541,3.188,5.478,6.366,4.875
				c2.472-0.469,3.199-2.665,2.773-6.837C352.625,187.32,349.447,187.923,345.916,188.593z"/>
		</g>
		<g>
			<path fill="#FFFFFF" d="M358.248,218.123c0.129-0.272,0.162-0.723,0.147-1.352c-0.064-2.56-2.262-4.169-6.636-4.779
				c0.095,2.02,0.188,3.95,0.547,5.784l-7.123,0.941c-0.274-2.016-0.417-4.125-0.52-6.459c-4.02,1.043-5.972,3.833-5.859,8.416
				l-7.077,0.939c-0.26-10.466,5.924-16.687,16.254-16.944c10.062-0.25,17.372,4.513,17.564,12.284
				c0.018,0.674-0.058,1.26-0.087,1.935L358.248,218.123z"/>
		</g>
		<g>
			<path fill="#FFFFFF" d="M331.668,239.347c1.864,0.851,4.638,1.987,8.581,3.496c-0.02-3.508-1.105-8.285-3.032-12.104
				c-1.396-0.092-2.57,0.126-3.831,0.33l-0.476-7.134c4.688-0.828,10.221-0.971,15.587-0.095
				c9.623,1.571,16.063,8.133,14.745,16.203c-1.305,7.983-9.842,12.597-19.199,11.069c-2.396-0.391-5.67-0.971-15.138-5.158
				L331.668,239.347z M356.235,238.898c0.659-4.035-3.34-7.147-8.883-8.053c-0.976-0.159-1.869-0.26-2.727-0.309
				c1.896,3.998,2.855,10.118,2.764,13.746C351.918,244.43,355.686,242.269,356.235,238.898z"/>
		</g>
		<g>
			<path fill="#FFFFFF" d="M355.236,268.653c-2.519-1.644-13.555-7.791-18.347-9.468c-4.581-1.602-6.928-0.472-8.486,3.981
				l-6.701-2.345c2.895-8.271,9.235-11.289,17.547-8.379c5.005,1.751,17.058,8.254,19.025,9.704L355.236,268.653z"/>
		</g>
		<g>
			<path fill="#FFFFFF" d="M322.02,265.761c0.883-1.918,3.06-2.994,4.896-2.149c1.796,0.827,2.51,3.036,1.553,5.117
				c-0.884,1.918-3.078,3.035-4.916,2.19C321.717,270.074,321.137,267.68,322.02,265.761z M348.641,281.427
				c-2.027-1.181-7.811-4.09-12.587-6.288c-2.448-1.127-4.427-1.988-5.748-2.448l2.78-6.041c2.379,0.848,8.374,3.408,13.067,5.569
				c2.448,1.127,4.493,2.167,5.456,2.759L348.641,281.427z"/>
		</g>
	</g>
</g>
</svg>
