<svg xmlns="http://www.w3.org/2000/svg" xmlns:xlink="http://www.w3.org/1999/xlink" version="1.1" id="Layer_1" x="0px" y="0px" width="100px" height="100px" viewBox="0 0 100 100" enable-background="new 0 0 100 100" xml:space="preserve" xmlns:xml="http://www.w3.org/XML/1998/namespace">
<path id="spoon" d="M50.994,6.168c-8.492,0-10.787,16.306-10.787,22.265c0,5.338,6.165,8.958,6.165,8.958  c1.543,0.903,2.721,3.105,2.622,4.892c0,0-2.517,44.773-2.517,47.319c0,3.448,2.025,6.229,4.523,6.229  c2.502,0,4.521-2.78,4.521-6.229c0-2.546-2.511-47.319-2.511-47.319c-0.102-1.787,1.076-3.989,2.619-4.895  c0,0,6.165-3.621,6.165-8.955C61.781,22.474,59.482,6.168,50.994,6.168z"/>
</svg>