<?xml version="1.0" encoding="UTF-8" standalone="no"?>
<svg width="22px" height="90px" viewBox="0 0 22 90" version="1.1" xmlns="http://www.w3.org/2000/svg" xmlns:xlink="http://www.w3.org/1999/xlink" xmlns:sketch="http://www.bohemiancoding.com/sketch/ns">
    <title>spoon</title>
    <description>Created with Sketch (http://www.bohemiancoding.com/sketch)</description>
    <defs></defs>
    <g id="Page-1" stroke="none" stroke-width="1" fill="none" fill-rule="evenodd" sketch:type="MSPage">
        <g id="spoon" sketch:type="MSLayerGroup" fill="#1F9BCC">
            <path d="M10.994,0.168 C2.502,0.168 0.207,16.474 0.207,22.433 C0.207,27.771 6.372,31.391 6.372,31.391 C7.915,32.294 9.093,34.496 8.994,36.283 C8.994,36.283 6.477,81.056 6.477,83.602 C6.477,87.05 8.502,89.831 11,89.831 C13.502,89.831 15.521,87.051 15.521,83.602 C15.521,81.056 13.01,36.283 13.01,36.283 C12.908,34.496 14.086,32.294 15.629,31.388 C15.629,31.388 21.794,27.767 21.794,22.433 C21.781,16.474 19.482,0.168 10.994,0.168 L10.994,0.168 Z" sketch:type="MSShapeGroup"></path>
        </g>
    </g>
</svg>